<mxfile host="app.diagrams.net" agent="Mozilla/5.0 (X11; Linux x86_64) AppleWebKit/537.36 (KHTML, like Gecko) Chrome/135.0.0.0 Safari/537.36" version="26.2.9">
  <diagram name="第 1 页" id="w701_fSm5EV3r7PEXog0">
    <mxGraphModel dx="2068" dy="1187" grid="1" gridSize="10" guides="1" tooltips="1" connect="1" arrows="1" fold="1" page="1" pageScale="1" pageWidth="827" pageHeight="1169" math="0" shadow="0">
      <root>
        <mxCell id="0" />
        <mxCell id="1" parent="0" />
        <mxCell id="aCxQCMfJFPx7ny7CXokQ-41" value="" style="rounded=1;whiteSpace=wrap;html=1;arcSize=3;" vertex="1" parent="1">
          <mxGeometry x="180" y="213" width="200" height="90" as="geometry" />
        </mxCell>
        <mxCell id="aCxQCMfJFPx7ny7CXokQ-42" value="" style="rounded=1;whiteSpace=wrap;html=1;arcSize=10;" vertex="1" parent="1">
          <mxGeometry x="180" y="100" width="200" height="40" as="geometry" />
        </mxCell>
        <mxCell id="aCxQCMfJFPx7ny7CXokQ-43" value="" style="rounded=1;whiteSpace=wrap;html=1;arcSize=10;" vertex="1" parent="1">
          <mxGeometry x="500" y="100" width="200" height="40" as="geometry" />
        </mxCell>
        <mxCell id="aCxQCMfJFPx7ny7CXokQ-44" value="应用A" style="text;html=1;align=center;verticalAlign=middle;whiteSpace=wrap;rounded=0;" vertex="1" parent="1">
          <mxGeometry x="180" y="105" width="60" height="30" as="geometry" />
        </mxCell>
        <mxCell id="aCxQCMfJFPx7ny7CXokQ-45" value="应用B" style="text;html=1;align=center;verticalAlign=middle;whiteSpace=wrap;rounded=0;" vertex="1" parent="1">
          <mxGeometry x="626.5" y="105" width="60" height="30" as="geometry" />
        </mxCell>
        <mxCell id="aCxQCMfJFPx7ny7CXokQ-46" value="buffer" style="rounded=0;whiteSpace=wrap;html=1;" vertex="1" parent="1">
          <mxGeometry x="296.5" y="110" width="60" height="20" as="geometry" />
        </mxCell>
        <mxCell id="aCxQCMfJFPx7ny7CXokQ-47" value="buffer" style="rounded=0;whiteSpace=wrap;html=1;" vertex="1" parent="1">
          <mxGeometry x="528.5" y="110" width="60" height="20" as="geometry" />
        </mxCell>
        <mxCell id="aCxQCMfJFPx7ny7CXokQ-48" value="" style="rounded=1;whiteSpace=wrap;html=1;arcSize=7;" vertex="1" parent="1">
          <mxGeometry x="222" y="218" width="25" height="60" as="geometry" />
        </mxCell>
        <mxCell id="aCxQCMfJFPx7ny7CXokQ-49" value="" style="rounded=1;whiteSpace=wrap;html=1;arcSize=7;" vertex="1" parent="1">
          <mxGeometry x="296" y="218" width="25" height="60" as="geometry" />
        </mxCell>
        <mxCell id="aCxQCMfJFPx7ny7CXokQ-50" value="" style="rounded=1;whiteSpace=wrap;html=1;arcSize=7;" vertex="1" parent="1">
          <mxGeometry x="330" y="218" width="25" height="60" as="geometry" />
        </mxCell>
        <mxCell id="aCxQCMfJFPx7ny7CXokQ-51" value="内核" style="rounded=1;whiteSpace=wrap;html=1;arcSize=3;" vertex="1" parent="1">
          <mxGeometry x="180" y="160" width="200" height="40" as="geometry" />
        </mxCell>
        <mxCell id="aCxQCMfJFPx7ny7CXokQ-52" value="内核" style="rounded=1;whiteSpace=wrap;html=1;arcSize=3;" vertex="1" parent="1">
          <mxGeometry x="500" y="160" width="200" height="40" as="geometry" />
        </mxCell>
        <mxCell id="aCxQCMfJFPx7ny7CXokQ-53" value="" style="rounded=1;whiteSpace=wrap;html=1;arcSize=3;" vertex="1" parent="1">
          <mxGeometry x="500" y="218.5" width="198.5" height="87" as="geometry" />
        </mxCell>
        <mxCell id="aCxQCMfJFPx7ny7CXokQ-54" value="" style="rounded=1;whiteSpace=wrap;html=1;arcSize=7;" vertex="1" parent="1">
          <mxGeometry x="528.5" y="223" width="25" height="58" as="geometry" />
        </mxCell>
        <mxCell id="aCxQCMfJFPx7ny7CXokQ-55" value="" style="rounded=1;whiteSpace=wrap;html=1;arcSize=7;" vertex="1" parent="1">
          <mxGeometry x="563.5" y="223.5" width="25" height="60" as="geometry" />
        </mxCell>
        <mxCell id="aCxQCMfJFPx7ny7CXokQ-56" value="" style="rounded=1;whiteSpace=wrap;html=1;arcSize=7;" vertex="1" parent="1">
          <mxGeometry x="629.5" y="224.5" width="25" height="60" as="geometry" />
        </mxCell>
        <mxCell id="aCxQCMfJFPx7ny7CXokQ-57" value="RDMA 网卡" style="text;html=1;align=center;verticalAlign=middle;whiteSpace=wrap;rounded=0;" vertex="1" parent="1">
          <mxGeometry x="237" y="278" width="75" height="30" as="geometry" />
        </mxCell>
        <mxCell id="aCxQCMfJFPx7ny7CXokQ-58" value="RDMA 网卡" style="text;html=1;align=center;verticalAlign=middle;whiteSpace=wrap;rounded=0;" vertex="1" parent="1">
          <mxGeometry x="561.38" y="283" width="81.25" height="28" as="geometry" />
        </mxCell>
        <mxCell id="aCxQCMfJFPx7ny7CXokQ-59" value="" style="rounded=1;whiteSpace=wrap;html=1;arcSize=7;fillColor=#f5f5f5;fontColor=#333333;strokeColor=#666666;" vertex="1" parent="1">
          <mxGeometry x="222" y="263" width="25" height="15" as="geometry" />
        </mxCell>
        <mxCell id="aCxQCMfJFPx7ny7CXokQ-60" value="CQ" style="text;html=1;align=center;verticalAlign=middle;whiteSpace=wrap;rounded=0;" vertex="1" parent="1">
          <mxGeometry x="204.5" y="218" width="60" height="30" as="geometry" />
        </mxCell>
        <mxCell id="aCxQCMfJFPx7ny7CXokQ-61" value="RQ" style="text;html=1;align=center;verticalAlign=middle;resizable=0;points=[];autosize=1;strokeColor=none;fillColor=none;" vertex="1" parent="1">
          <mxGeometry x="288.5" y="218" width="40" height="30" as="geometry" />
        </mxCell>
        <mxCell id="aCxQCMfJFPx7ny7CXokQ-62" value="SQ" style="text;html=1;align=center;verticalAlign=middle;resizable=0;points=[];autosize=1;strokeColor=none;fillColor=none;" vertex="1" parent="1">
          <mxGeometry x="322.5" y="218" width="40" height="30" as="geometry" />
        </mxCell>
        <mxCell id="aCxQCMfJFPx7ny7CXokQ-63" value="CQ" style="text;html=1;align=center;verticalAlign=middle;resizable=0;points=[];autosize=1;strokeColor=none;fillColor=none;" vertex="1" parent="1">
          <mxGeometry x="621.5" y="217.5" width="40" height="30" as="geometry" />
        </mxCell>
        <mxCell id="aCxQCMfJFPx7ny7CXokQ-64" value="" style="rounded=1;whiteSpace=wrap;html=1;arcSize=7;fillColor=#f5f5f5;fontColor=#333333;strokeColor=#666666;" vertex="1" parent="1">
          <mxGeometry x="629.5" y="263.5" width="25" height="15" as="geometry" />
        </mxCell>
        <mxCell id="aCxQCMfJFPx7ny7CXokQ-65" value="RQ" style="text;html=1;align=center;verticalAlign=middle;resizable=0;points=[];autosize=1;strokeColor=none;fillColor=none;" vertex="1" parent="1">
          <mxGeometry x="521" y="218.5" width="40" height="30" as="geometry" />
        </mxCell>
        <mxCell id="aCxQCMfJFPx7ny7CXokQ-66" value="SQ" style="text;html=1;align=center;verticalAlign=middle;resizable=0;points=[];autosize=1;strokeColor=none;fillColor=none;" vertex="1" parent="1">
          <mxGeometry x="556" y="218.5" width="40" height="30" as="geometry" />
        </mxCell>
        <mxCell id="aCxQCMfJFPx7ny7CXokQ-67" value="" style="rounded=1;whiteSpace=wrap;html=1;arcSize=7;fillColor=#647687;fontColor=#ffffff;strokeColor=#314354;" vertex="1" parent="1">
          <mxGeometry x="330" y="258" width="25" height="20" as="geometry" />
        </mxCell>
        <mxCell id="aCxQCMfJFPx7ny7CXokQ-68" value="数据" style="text;html=1;align=center;verticalAlign=middle;resizable=0;points=[];autosize=1;strokeColor=none;fillColor=none;" vertex="1" parent="1">
          <mxGeometry x="412" y="198.5" width="50" height="30" as="geometry" />
        </mxCell>
        <mxCell id="aCxQCMfJFPx7ny7CXokQ-69" value="" style="shape=flexArrow;endArrow=classic;html=1;rounded=0;endWidth=4.194444444444445;endSize=1.9333333333333333;width=4.833333333333333;" edge="1" parent="1">
          <mxGeometry width="50" height="50" relative="1" as="geometry">
            <mxPoint x="480" y="235" as="sourcePoint" />
            <mxPoint x="400" y="235" as="targetPoint" />
          </mxGeometry>
        </mxCell>
        <mxCell id="aCxQCMfJFPx7ny7CXokQ-70" value="" style="endArrow=classic;html=1;rounded=0;" edge="1" parent="1">
          <mxGeometry width="50" height="50" relative="1" as="geometry">
            <mxPoint x="400" y="225" as="sourcePoint" />
            <mxPoint x="480" y="225" as="targetPoint" />
          </mxGeometry>
        </mxCell>
        <mxCell id="aCxQCMfJFPx7ny7CXokQ-71" value="ACK" style="text;html=1;align=center;verticalAlign=middle;resizable=0;points=[];autosize=1;strokeColor=none;fillColor=none;" vertex="1" parent="1">
          <mxGeometry x="412" y="235" width="50" height="30" as="geometry" />
        </mxCell>
        <mxCell id="aCxQCMfJFPx7ny7CXokQ-72" value="" style="ellipse;whiteSpace=wrap;html=1;aspect=fixed;" vertex="1" parent="1">
          <mxGeometry x="402" y="208.5" width="10" height="10" as="geometry" />
        </mxCell>
        <mxCell id="aCxQCMfJFPx7ny7CXokQ-73" value="&lt;font style=&quot;font-size: 10px;&quot;&gt;2&lt;/font&gt;" style="text;html=1;align=center;verticalAlign=middle;resizable=0;points=[];autosize=1;strokeColor=none;fillColor=none;" vertex="1" parent="1">
          <mxGeometry x="391.4" y="197.5" width="30" height="30" as="geometry" />
        </mxCell>
        <mxCell id="aCxQCMfJFPx7ny7CXokQ-74" value="3" style="ellipse;whiteSpace=wrap;html=1;aspect=fixed;" vertex="1" parent="1">
          <mxGeometry x="401.4" y="247" width="10" height="10" as="geometry" />
        </mxCell>
        <mxCell id="aCxQCMfJFPx7ny7CXokQ-75" value="" style="shape=flexArrow;endArrow=classic;html=1;rounded=0;endWidth=4.194444444444445;endSize=1.9333333333333333;width=4.833333333333333;entryX=0.63;entryY=1.067;entryDx=0;entryDy=0;entryPerimeter=0;" edge="1" parent="1">
          <mxGeometry width="50" height="50" relative="1" as="geometry">
            <mxPoint x="235" y="218.66" as="sourcePoint" />
            <mxPoint x="234" y="141.34000000000006" as="targetPoint" />
          </mxGeometry>
        </mxCell>
        <mxCell id="aCxQCMfJFPx7ny7CXokQ-76" value="poll CQE" style="text;html=1;align=center;verticalAlign=middle;resizable=0;points=[];autosize=1;strokeColor=none;fillColor=none;" vertex="1" parent="1">
          <mxGeometry x="240" y="136" width="70" height="30" as="geometry" />
        </mxCell>
        <mxCell id="aCxQCMfJFPx7ny7CXokQ-77" value="4" style="ellipse;whiteSpace=wrap;html=1;aspect=fixed;" vertex="1" parent="1">
          <mxGeometry x="240" y="146" width="10" height="10" as="geometry" />
        </mxCell>
        <mxCell id="aCxQCMfJFPx7ny7CXokQ-78" value="" style="shape=flexArrow;endArrow=classic;html=1;rounded=0;endWidth=4.194444444444445;endSize=1.9333333333333333;width=4.833333333333333;entryX=0.552;entryY=0.067;entryDx=0;entryDy=0;entryPerimeter=0;exitX=0.823;exitY=1;exitDx=0;exitDy=0;exitPerimeter=0;" edge="1" parent="1" source="aCxQCMfJFPx7ny7CXokQ-42" target="aCxQCMfJFPx7ny7CXokQ-62">
          <mxGeometry width="50" height="50" relative="1" as="geometry">
            <mxPoint x="345" y="144" as="sourcePoint" />
            <mxPoint x="434" y="52.680000000000064" as="targetPoint" />
          </mxGeometry>
        </mxCell>
        <mxCell id="aCxQCMfJFPx7ny7CXokQ-79" value="下发send wr" style="text;html=1;align=center;verticalAlign=middle;resizable=0;points=[];autosize=1;strokeColor=none;fillColor=none;" vertex="1" parent="1">
          <mxGeometry x="355" y="136" width="90" height="30" as="geometry" />
        </mxCell>
        <mxCell id="aCxQCMfJFPx7ny7CXokQ-80" value="1" style="ellipse;whiteSpace=wrap;html=1;aspect=fixed;" vertex="1" parent="1">
          <mxGeometry x="355" y="146" width="10" height="10" as="geometry" />
        </mxCell>
      </root>
    </mxGraphModel>
  </diagram>
</mxfile>
